<?xml version="1.0" encoding="iso-8859-1"?>
<!-- Generator: Adobe Illustrator 19.0.0, SVG Export Plug-In . SVG Version: 6.00 Build 0)  -->
<svg version="1.1" id="Layer_1" xmlns="http://www.w3.org/2000/svg" xmlns:xlink="http://www.w3.org/1999/xlink" x="0px" y="0px"
	 viewBox="0 0 512.001 512.001" style="enable-background:new 0 0 512.001 512.001;" xml:space="preserve">
<path style="fill:#435670;" d="M254.123,443.358c-103.792,0-188.232-84.441-188.232-188.232S150.331,66.893,254.123,66.893
	s188.232,84.441,188.232,188.232S357.914,443.358,254.123,443.358z M254.123,82.982c-94.92,0-172.144,77.223-172.144,172.144
	S159.202,427.27,254.123,427.27s172.144-77.223,172.144-172.144S349.043,82.982,254.123,82.982z"/>
<g>
	<path style="fill:#FF8C78;" d="M254.123,303.927c-13.898,0-25.205,11.307-25.205,25.205c0,13.898,11.307,25.205,25.205,25.205
		s25.205-11.307,25.205-25.205C279.328,315.233,268.021,303.927,254.123,303.927z"/>
	<path style="fill:#FF8C78;" d="M254.123,291.056c12.124,0,21.987-9.863,21.987-21.987v-94.384c0-12.124-9.863-21.987-21.987-21.987
		c-12.124,0-21.987,9.863-21.987,21.987v94.384C232.136,281.193,241.999,291.056,254.123,291.056z"/>
</g>
<path style="fill:#FFE9C4;" d="M399.989,187.019c-42.285,0-76.687,34.402-76.687,76.687s34.402,76.687,76.687,76.687
	s76.687-34.402,76.687-76.687S442.275,187.019,399.989,187.019z"/>
<path style="fill:#69788D;" d="M464.529,176.417c-46.324-41.464-130.512-32.648-134.071-32.25c-4.075,0.453-7.156,3.897-7.156,7.995
	v28.042l-28.228,7.056c-4.36,1.091-7.033,5.733-5.771,10.055c4.914,16.86,30.18,101.702,44.992,116.228
	c4.987,4.896,13.676,1.226,13.676-5.742v-70.37h104.037v70.37c0,6.955,8.683,10.643,13.676,5.742
	c18.155-17.804,28.153-41.597,28.153-66.997C493.837,217.418,483.976,193.824,464.529,176.417z"/>
<path style="fill:#ECEEF1;" d="M468.632,332.885H339.927c-23.36,0-42.366,19.006-42.366,42.366v128.706
	c0,4.444,3.601,8.044,8.044,8.044h197.349c4.444,0,8.044-3.601,8.044-8.044V375.251
	C510.998,351.891,491.993,332.885,468.632,332.885z"/>
<g>
	<path style="fill:#56677E;" d="M374.248,272.823c-4.444,0-8.044-3.601-8.044-8.044v-1.073c0-4.444,3.601-8.044,8.044-8.044
		s8.044,3.601,8.044,8.044v1.073C382.292,269.221,378.691,272.823,374.248,272.823z"/>
	<path style="fill:#56677E;" d="M425.731,272.823c-4.444,0-8.044-3.601-8.044-8.044v-1.073c0-4.444,3.601-8.044,8.044-8.044
		s8.044,3.601,8.044,8.044v1.073C433.775,269.221,430.173,272.823,425.731,272.823z"/>
</g>
<g>
	<polygon style="fill:#3CBDE8;" points="417.15,366.671 382.829,366.671 374.248,332.349 425.731,332.349 	"/>
	<polygon style="fill:#3CBDE8;" points="425.731,478.216 399.989,495.376 374.248,478.216 382.829,366.671 417.15,366.671 	"/>
</g>
<polygon style="fill:#2C9DD4;" points="417.15,366.671 382.829,366.671 382.169,375.251 417.81,375.251 "/>
<path style="fill:#56677E;" d="M389.137,145.544c-30.741-4.323-56.736-1.596-58.68-1.379c-4.075,0.453-7.156,3.897-7.156,7.995
	v28.042l-28.228,7.056c-4.36,1.091-7.033,5.733-5.771,10.055c4.914,16.86,30.18,101.702,44.992,116.228
	c2.31,2.268,5.758,2.927,8.747,1.674c2.986-1.254,4.929-4.178,4.929-7.417v-70.37h0.828
	C350.994,201.841,365.941,169.708,389.137,145.544z"/>
<path style="fill:#D9DDE2;" d="M339.927,370.961c0-12.953,1.016-25.667,2.956-38.075h-2.956c-23.36,0-42.366,19.006-42.366,42.366
	v128.706c0,4.444,3.601,8.044,8.044,8.044h79.077C356.494,472.146,339.927,423.489,339.927,370.961z"/>
<path style="fill:#435670;" d="M172.609,83.518c-18.719-41.72-46.209-67.957-63.255-81.621c-3.153-2.528-7.623-2.528-10.776,0
	C81.532,15.561,54.042,41.798,35.324,83.518C11.68,136.217,15.439,183.731,18.163,203.643c28.602,0,57.202,0,85.804,0
	s57.202,0,85.804,0C192.494,183.731,196.254,136.217,172.609,83.518z"/>
<circle style="fill:#3CBDE8;" cx="103.962" cy="130.712" r="72.933"/>
<path style="fill:#2C9DD4;" d="M103.966,117.839c29.57,0,55.011,17.608,66.459,42.902c4.146-9.162,6.474-19.322,6.474-30.031
	c0-40.28-32.654-72.933-72.933-72.933S31.033,90.431,31.033,130.71c0,10.709,2.327,20.87,6.474,30.031
	C48.955,135.448,74.396,117.839,103.966,117.839z"/>
<path style="fill:#69788D;" d="M189.77,203.643c2.724-19.912,6.484-67.427-17.161-120.125
	c-18.719-41.72-46.209-67.956-63.255-81.621c-3.153-2.528-7.623-2.528-10.776,0C81.532,15.562,54.042,41.798,35.324,83.518
	C11.68,136.217,15.439,183.731,18.163,203.643c-9.478,0-17.161,7.684-17.161,17.161v154.447h205.929V220.804
	C206.931,211.326,199.247,203.643,189.77,203.643z M39.613,195.063V165.99c0-35.367,28.134-64.847,63.498-65.306
	c35.932-0.467,65.208,28.521,65.208,64.348v30.031c0,4.739-3.842,8.58-8.58,8.58H48.194
	C43.455,203.643,39.613,199.801,39.613,195.063z"/>
<path style="fill:#56677E;" d="M31.074,203.643c-0.023-1.428-0.041-2.856-0.041-4.29c0-83.525,37.818-155.187,91.715-185.796
	c-4.868-4.593-9.417-8.473-13.393-11.661c-3.153-2.528-7.623-2.528-10.776,0C81.532,15.561,54.042,41.797,35.324,83.517
	C11.68,136.215,15.439,183.73,18.163,203.642c-9.478,0-17.161,7.684-17.161,17.161V375.25h106.743
	C62.836,341.364,32.22,277.373,31.074,203.643z"/>
<path style="fill:#C7CCD4;" d="M176.899,358.09H31.033l-3.918-94.027c-0.203-4.875,3.694-8.938,8.573-8.938h136.556
	c4.879,0,8.776,4.063,8.573,8.938L176.899,358.09z"/>
<polygon style="fill:#A1ABB8;" points="30.676,349.51 31.033,358.09 176.899,358.09 177.257,349.51 "/>
<path style="fill:#C7CCD4;" d="M189.77,375.251H18.162c-2.369,0-4.29-1.921-4.29-4.29v-8.58c0-2.369,1.921-4.29,4.29-4.29H189.77
	c2.369,0,4.29,1.921,4.29,4.29v8.58C194.06,373.33,192.139,375.251,189.77,375.251z"/>
<path style="fill:#56677E;" d="M121.127,280.867H86.805c-4.739,0-8.58,3.842-8.58,8.58c0,4.739,3.842,8.58,8.58,8.58h8.58v17.161
	c0,4.739,3.842,8.58,8.58,8.58c4.739,0,8.58-3.842,8.58-8.58v-17.161h8.58c4.739,0,8.58-3.842,8.58-8.58
	C129.707,284.709,125.866,280.867,121.127,280.867z"/>
<g>
</g>
<g>
</g>
<g>
</g>
<g>
</g>
<g>
</g>
<g>
</g>
<g>
</g>
<g>
</g>
<g>
</g>
<g>
</g>
<g>
</g>
<g>
</g>
<g>
</g>
<g>
</g>
<g>
</g>
</svg>
